<?xml version="1.0" encoding="utf-8"?>
<!-- Generator: Adobe Illustrator 24.1.2, SVG Export Plug-In . SVG Version: 6.00 Build 0)  -->
<svg version="1.1" id="Layer_1" xmlns="http://www.w3.org/2000/svg" xmlns:xlink="http://www.w3.org/1999/xlink" x="0px" y="0px"
	 viewBox="0 0 72 72" style="enable-background:new 0 0 72 72;" xml:space="preserve">
<style type="text/css">
	.st0{fill:#F26C21;}
	.st1{fill:#FFFFFF;}
</style>
<g>
	<path class="st0" d="M36,0C16.1,0,0,16.1,0,36c0,19.9,16.1,36,36,36c19.9,0,36-16.1,36-36C72,16.1,55.9,0,36,0"/>
	<path class="st1" d="M51,43.9l-1.7-0.1c0.1-1.7-0.6-3.3-1.9-4.6c-2.8-2.8-8.2-4.2-12.2-4.1c-4.6,0.1-12,2.3-12.2,7.7l-1.7-0.1
		l0.5-13l0.9,0l-0.9,0c0.2-4.8,5-7.7,9.5-8.8c3.9-1,8.3-0.7,12.1,0.7c5.1,1.9,8.1,5.4,8.1,9.3c0,2.9-0.2,5.8-0.3,8.6
		C51.1,41,51.1,42.4,51,43.9C51,43.9,51,43.9,51,43.9 M30.4,34c1.7-0.4,3.3-0.6,4.8-0.7c4.2-0.1,10.2,1.3,13.4,4.6
		c0.3,0.3,0.6,0.7,0.9,1c0.1-2.7,0.2-5.4,0.3-8.1c0-4.8-5.3-7.1-7-7.7c-3.4-1.3-7.5-1.5-11.1-0.6c-3.9,0.9-8,3.3-8.2,7.2L23.3,38
		C25,36,27.7,34.7,30.4,34"/>
	<path class="st1" d="M64.1,28.2L64.1,28.2c-0.2-0.6-0.3-1.3-0.6-1.9c-0.2-0.6-0.8-1-1.8-1.1c-0.2,0-0.5-0.2-0.7-0.3
		c-0.3-0.4-0.6-0.8-0.8-1.2c-0.1-0.1,0-0.4,0.1-0.5c0.7-0.6,0.7-1,0.1-1.7c-0.5-0.5-1-1-1.4-1.4c-0.7-0.6-1.3-0.8-2.5-0.7
		c-0.2,0-0.6,0-0.8-0.2c-0.5-0.3-1-0.6-1.4-0.9c-0.1-0.1-0.3-0.3-0.2-0.5c0.3-0.7-0.2-1.2-1-1.7c-0.7-0.4-1.5-0.7-2.2-1
		c-0.8-0.3-1.5-0.4-2.3-0.1c0,0-0.1,0-0.2,0.1c-0.3,0.1-0.5,0.1-0.8,0c-0.6-0.2-1.2-0.4-1.8-0.5c-0.5-0.1-0.7-0.3-0.8-0.6
		c-0.2-0.6-0.7-1-1.7-1.1c-0.8-0.1-1.6-0.2-2.5-0.4c-0.8-0.1-1.3-0.1-1.7,0.1c-0.3,0.1-0.5,0.3-0.8,0.5c-0.1,0-0.1,0.1-0.2,0.1
		c-0.1,0.1-0.3,0.1-0.5,0.1c-0.7,0-1.3,0-2,0c-0.5,0-0.8-0.1-1.1-0.4c-0.5-0.5-1.2-0.7-2.2-0.6c-0.9,0.1-1.7,0.2-2.6,0.3
		c-0.4,0-0.7,0.1-1,0.2c-0.5,0.2-0.7,0.5-0.9,1c0,0.1-0.2,0.3-0.5,0.4c-0.6,0.2-1.2,0.3-1.9,0.5c-0.3,0.1-0.6,0.1-0.9-0.1
		c-0.8-0.4-1.5-0.4-2.4-0.1c-0.3,0.1-0.5,0.2-0.8,0.3c-0.5,0.2-1,0.4-1.5,0.6c-0.9,0.4-1.2,0.8-0.9,1.5c0.1,0.2,0,0.4-0.3,0.6
		c-0.5,0.3-0.9,0.6-1.4,0.9c-0.1,0-0.1,0.1-0.2,0.1c-0.2,0.1-0.4,0.1-0.7,0c-0.7-0.1-1.2-0.1-1.7,0.1c-0.2,0.1-0.4,0.2-0.6,0.4
		c-0.5,0.4-0.9,0.9-1.4,1.3c-0.7,0.6-0.7,1.1-0.1,1.8C13,22,13,22.3,13,22.5c-0.2,0.4-0.5,0.8-0.8,1.3C12.1,23.9,12,24,11.8,24
		c-0.1,0-0.2,0.1-0.4,0.1c-0.4,0-0.7,0.1-1,0.2c-0.4,0.2-0.7,0.5-0.8,0.9c-0.2,0.5-0.3,1.1-0.5,1.6c0,0.1-0.1,0.3-0.1,0.4
		c0-0.1-0.1-0.2,0-0.3L8.5,44.5c0,0.1,0,0.2,0,0.3c0.2,0.7,0.4,1.3,0.6,2c0.1,0.2,0.2,0.3,0.3,0.5c0,0,0.1,0.1,0.1,0.1
		c0.1,0.1,0.3,0.2,0.4,0.3c0,0,0.1,0.1,0.1,0.1c0,0,0.1,0,0.1,0c0,0,0.1,0,0.1,0c0,0,0.1,0,0.1,0c0.1,0,0.2,0,0.4,0.1
		c0,0,0.1,0,0.1,0c0.2,0,0.3,0.1,0.4,0.1c0,0,0.1,0,0.1,0c0.1,0.1,0.2,0.1,0.2,0.2c0.1,0.1,0.1,0.2,0.2,0.3l-0.1,2.2
		c0,0.3,0.1,0.6,0.4,0.8c0.5,0.5,1,1,1.5,1.5c0.2,0.2,0.4,0.3,0.7,0.4c0,0,0.1,0,0.1,0.1c0.1,0,0.1,0,0.2,0.1c0,0,0,0,0.1,0
		c0,0,0,0,0,0c0.1,0,0.2,0,0.3,0c0.1,0,0.1,0,0.2,0c0,0,0.1,0,0.1,0c0,0,0.1,0,0.1,0c0.2,0,0.4,0,0.6-0.1c0.2,0,0.3,0,0.5,0
		c0,0,0,0,0,0c0.1,0,0.3,0.1,0.4,0.2c0.4,0.3,0.8,0.6,1.3,0.9c0.1,0,0.1,0.1,0.2,0.2l0,0.8c0,0.5,0.4,0.8,1,1.2
		c0.7,0.4,1.5,0.7,2.3,1.1c0.1,0,0.1,0.1,0.2,0.1c0.1,0,0.2,0.1,0.4,0.1c0,0,0,0,0,0c0,0,0,0,0,0c0.1,0,0.2,0,0.3,0.1
		c0.1,0,0.1,0,0.2,0c0,0,0.1,0,0.1,0c0,0,0,0,0.1,0c0.1,0,0.3,0,0.4,0c0,0,0,0,0,0c0.2,0,0.4-0.1,0.6-0.2c0.1,0,0.1,0,0.2-0.1
		c0.1-0.1,0.3-0.1,0.4-0.1c0,0,0,0,0,0c0.1,0,0.3,0,0.4,0.1c0.6,0.2,1.2,0.4,1.8,0.5c0.2,0,0.3,0.1,0.4,0.2c0,0,0.1,0,0.1,0.1
		c0.1,0.1,0.2,0.2,0.2,0.3c0,0.1,0.1,0.3,0.2,0.4c0,0,0,0.1,0.1,0.1c0.1,0.1,0.1,0.2,0.2,0.2c0,0,0.1,0.1,0.1,0.1
		c0.1,0.1,0.2,0.1,0.3,0.2c0,0,0.1,0,0.1,0.1c0,0,0,0,0,0c0.1,0,0.3,0.1,0.4,0.1c0.1,0,0.1,0,0.2,0c1,0.2,2.1,0.3,3.1,0.5
		c0,0,0,0,0,0c0.1,0,0.3,0,0.4,0c0.1,0,0.1,0,0.2,0c0,0,0.1,0,0.1,0c0,0,0.1,0,0.1,0c0.1,0,0.3-0.1,0.4-0.1c0.2-0.1,0.3-0.2,0.5-0.3
		c0.1-0.1,0.1-0.1,0.2-0.2c0.1-0.1,0.2-0.2,0.3-0.2c0.2-0.1,0.3-0.1,0.6-0.1c0.6,0,1.1,0.1,1.6,0.1c0,0,0.1,0,0.1,0
		c0.3,0,0.5,0,0.7,0.1c0,0,0,0,0,0c0.2,0.1,0.4,0.2,0.5,0.4c0.2,0.2,0.4,0.3,0.6,0.4c0,0,0,0,0.1,0c0.1,0,0.1,0,0.2,0
		c0,0,0.1,0,0.1,0c0,0,0,0,0.1,0c0.1,0,0.2,0,0.3,0.1c0,0,0.1,0,0.1,0c0,0,0.1,0,0.1,0c0.1,0,0.1,0,0.2,0c0.1,0,0.2,0,0.4,0
		c0.8-0.1,1.7-0.2,2.5-0.3c0.1,0,0.3,0,0.4-0.1c0.2,0,0.4-0.1,0.6-0.2c0.2-0.1,0.3-0.2,0.5-0.3c0,0,0.1-0.1,0.1-0.1c0,0,0,0,0.1-0.1
		c0,0,0.1-0.1,0.1-0.1c0.1-0.1,0.1-0.2,0.2-0.3c0,0,0-0.1,0-0.1c0-0.1,0.1-0.1,0.2-0.2c0.1-0.1,0.2-0.1,0.3-0.2
		c0.5-0.2,1.1-0.3,1.6-0.4c0.2-0.1,0.4-0.1,0.6-0.1c0,0,0,0,0,0c0.2,0,0.4,0.1,0.6,0.2c0.1,0.1,0.2,0.1,0.3,0.2c0,0,0.1,0,0.2,0
		c0,0,0.1,0,0.1,0c0,0,0.1,0,0.1,0c0.1,0,0.2,0,0.3,0c0,0,0.1,0,0.1,0c0,0,0.1,0,0.1,0c0,0,0.1,0,0.1,0c0.1,0,0.3,0,0.4,0
		c0,0,0,0,0,0c0,0,0,0,0,0c0.2,0,0.4-0.1,0.6-0.2c0.4-0.2,0.8-0.3,1.2-0.5c0.4-0.2,0.8-0.3,1.2-0.5c0.2-0.1,0.4-0.2,0.6-0.3
		c0,0,0,0,0.1,0c0,0,0,0,0,0c0,0,0.1-0.1,0.1-0.1c0,0,0.1-0.1,0.1-0.1c0,0,0,0,0-0.1c0,0,0,0,0-0.1c0,0,0,0,0-0.1c0-0.1,0-0.1,0-0.2
		l0-1c0,0,0.1-0.1,0.1-0.1c0.4-0.2,0.9-0.5,1.3-0.8c0.1,0,0.1-0.1,0.2-0.1c0.1,0,0.2-0.1,0.3-0.1c0,0,0,0,0,0c0.1,0,0.2,0,0.4,0
		c0.1,0,0.3,0,0.4,0.1c0.2,0,0.3,0,0.4,0c0,0,0,0,0,0c0,0,0,0,0.1,0c0.1,0,0.2,0,0.3,0c0.2,0,0.3-0.1,0.4-0.1
		c0.2-0.1,0.4-0.2,0.6-0.4c0,0,0,0,0.1-0.1c0.5-0.4,0.9-0.9,1.4-1.3c0.2-0.1,0.3-0.3,0.4-0.4c0,0,0,0,0,0c0,0,0,0,0,0
		c0-0.1,0.1-0.1,0.1-0.2c0-0.1,0-0.1,0-0.2l0.1-2.6c0-0.1,0.1-0.1,0.1-0.2c0.1-0.1,0.1-0.2,0.3-0.3c0.1,0,0.2-0.1,0.4-0.1
		c0.2,0,0.4,0,0.6-0.1h0c0.2,0,0.3-0.1,0.5-0.1c0.2-0.1,0.3-0.2,0.4-0.3c0,0,0,0,0,0c0,0,0,0,0-0.1c0.1-0.1,0.1-0.1,0.2-0.2
		c0-0.1,0.1-0.1,0.1-0.2c0-0.1,0.1-0.2,0.1-0.3c0.1-0.2,0.1-0.4,0.2-0.6c0.1-0.3,0.2-0.6,0.3-0.9c0,0,0,0,0,0c0-0.1,0-0.2,0.1-0.3
		l0.5-17.2C64.1,28.5,64.1,28.4,64.1,28.2C64.1,28.2,64.1,28.2,64.1,28.2L64.1,28.2L64.1,28.2L64.1,28.2z M44.3,37.8
		C37.6,40.6,29,39,24.9,34.7c-4-4.2-2.4-9.7,4-12.3c0.1,0,0.1,0,0.2-0.1c6.4-2.6,15-1.2,19.1,3C52.3,29.3,51.2,35,44.3,37.8"/>
</g>
</svg>
